<?xml version="1.0" encoding="UTF-8"?>
<svg width="30px" height="30px" viewBox="0 0 30 30" version="1.1" xmlns="http://www.w3.org/2000/svg" xmlns:xlink="http://www.w3.org/1999/xlink">
    <!-- Generator: Sketch 64 (93537) - https://sketch.com -->
    <title>facebook</title>
    <desc>Created with Sketch.</desc>
    <defs>
        <polygon id="path-1" points="9.45993529e-05 0.264285714 29.7357143 0.264285714 29.7357143 30 9.45993529e-05 30"></polygon>
    </defs>
    <g id="facebook" stroke="none" stroke-width="1" fill="none" fill-rule="evenodd">
        <g id="Group-6">
            <g id="Group-3">
                <mask id="mask-2" fill="white">
                    <use xlink:href="#path-1"></use>
                </mask>
                <g id="Clip-2"></g>
                <path d="M18.9029524,6.3947619 C17.8029524,6.3947619 16.7386667,6.3247619 15.6872381,6.41095238 C14.0205714,6.54761905 13.0262857,7.4152381 12.6434286,8.95619048 C12.5415238,9.36809524 12.5248571,9.80571429 12.5034286,10.2338095 C12.4805714,10.6914286 12.4981905,11.152381 12.4981905,11.6561905 L10.7872381,11.6561905 L10.7872381,15.1880952 L12.5258095,15.1880952 L12.5258095,23.937619 L16.0462857,23.937619 L16.0462857,15.1766667 L18.6439048,15.1766667 C18.7524762,13.992381 18.8581905,12.8390476 18.9677143,11.6442857 L16.2024762,11.6442857 C16.1900952,11.5666667 16.1781905,11.5257143 16.1781905,11.4847619 C16.1772381,11.0542857 16.1691429,10.6238095 16.1805714,10.1938095 C16.194381,9.6747619 16.4677143,9.41 16.9958095,9.4 C17.4367619,9.39095238 17.8777143,9.39761905 18.3186667,9.39761905 L18.9029524,9.39761905 L18.9029524,6.3947619 Z M14.862,30 C6.652,29.9995238 -0.00228571429,23.3185714 9.45993529e-05,15.0785714 C0.00247619048,6.89333333 6.68533333,0.26 14.9258095,0.264283639 C23.0672381,0.269047619 29.739619,6.97333333 29.7358112,15.1433333 C29.7315238,23.3090476 23.032,30 14.862,30 L14.862,30 Z" id="Fill-1" fill="#5269A9" mask="url(#mask-2)"></path>
            </g>
        </g>
    </g>
</svg>