<?xml version="1.0" encoding="UTF-8"?>
<svg width="30px" height="30px" viewBox="0 0 30 30" version="1.1" xmlns="http://www.w3.org/2000/svg" xmlns:xlink="http://www.w3.org/1999/xlink">
    <!-- Generator: Sketch 64 (93537) - https://sketch.com -->
    <title>twitter</title>
    <desc>Created with Sketch.</desc>
    <defs>
        <polygon id="path-1" points="0 0.226921707 29.7754688 0.226921707 29.7754688 29.9997083 0 29.9997083"></polygon>
    </defs>
    <g id="twitter" stroke="none" stroke-width="1" fill="none" fill-rule="evenodd">
        <g id="Group-6">
            <g id="Group-3">
                <mask id="mask-2" fill="white">
                    <use xlink:href="#path-1"></use>
                </mask>
                <g id="Clip-2"></g>
                <path d="M6.13232812,21.663375 C6.22232812,21.7205625 6.31092187,21.7819687 6.40373437,21.8349375 C7.86576562,22.6744687 9.43467187,23.152125 11.1221719,23.2397812 C13.1687344,23.347125 15.1327969,23.00775 16.9093594,21.9704062 C20.4868594,19.8816562 22.2334219,16.6880625 22.3754531,12.5860312 C22.3871719,12.2579062 22.4734219,12.0530625 22.7237344,11.830875 C23.2515469,11.362125 23.7273281,10.833375 24.2242031,10.329 C24.2035781,10.3107187 24.1829531,10.2919687 24.1627969,10.2732187 C23.5215469,10.4475937 22.8798281,10.6224375 22.2385781,10.7968125 L22.1968594,10.7138437 C22.8896719,10.2197812 23.4287344,9.61228125 23.6893594,8.8215 C23.0368594,9.05634375 22.3913906,9.28696875 21.7482656,9.52275 C21.5077969,9.61040625 21.3310781,9.5705625 21.1252969,9.3868125 C19.9210781,8.30915625 18.2345156,8.122125 16.8395156,8.88478125 C15.4515469,9.6436875 14.7132656,11.1394687 14.9373281,12.7313437 C14.9504531,12.8250937 14.9392031,12.9216562 14.9392031,13.0313437 C11.8224844,12.805875 9.28373437,11.4999375 7.22685937,9.10321875 C6.34092187,11.0897812 6.72154687,12.7247812 8.34154687,14.0935312 C8.32560937,14.1174375 8.30967187,14.1413437 8.29326562,14.1657187 C7.77576562,14.0222812 7.25779687,13.8793125 6.66810937,13.7161875 C6.76092187,14.1422812 6.80498437,14.5669687 6.95076562,14.9536875 C7.09373437,15.3324375 7.29764062,15.7079062 7.55310937,16.0210312 C7.81607812,16.3425937 8.14889062,16.6257187 8.49717187,16.855875 C8.83279687,17.0780625 9.22795312,17.2111875 9.59685937,17.3832187 L9.59592187,17.4493125 L8.03217187,17.4493125 C8.66545312,19.045875 9.80123437,19.8793125 11.5276406,20.0475937 C9.88607812,21.2743125 8.11935937,21.7730625 6.13232812,21.663375 M-0.000329710514,15.115875 C0.003890625,6.910875 6.66389062,0.24759375 14.8815469,0.226921707 C23.0720156,0.20634375 29.8299844,6.97040625 29.7751406,15.1355625 C29.7198281,23.392125 23.0706094,30.0268125 14.8782656,29.9997083 C6.64467187,29.9729062 -0.004078125,23.3218125 -0.000329710514,15.115875" id="Fill-1" fill="#5269A9" mask="url(#mask-2)"></path>
            </g>
        </g>
    </g>
</svg>