<?xml version="1.0" encoding="UTF-8"?>
<svg width="30px" height="30px" viewBox="0 0 30 30" version="1.1" xmlns="http://www.w3.org/2000/svg" xmlns:xlink="http://www.w3.org/1999/xlink">
    <!-- Generator: Sketch 64 (93537) - https://sketch.com -->
    <title>google</title>
    <desc>Created with Sketch.</desc>
    <defs>
        <polygon id="path-1" points="0.000160910412 0.176911765 29.9091176 0.176911765 29.9091176 29.9999565 0.000160910412 29.9999565"></polygon>
    </defs>
    <g id="google" stroke="none" stroke-width="1" fill="none" fill-rule="evenodd">
        <g id="Group-6">
            <g id="Group-3">
                <mask id="mask-2" fill="white">
                    <use xlink:href="#path-1"></use>
                </mask>
                <g id="Clip-2"></g>
                <path d="M19.8395735,16.8514412 C19.8400147,17.2811471 19.62825,17.8564412 19.2867794,18.3832059 C18.2835441,19.9268824 16.1142794,20.7095294 14.1356029,20.3005588 C11.4311912,19.7420294 9.58707353,17.046 9.95810294,14.3164412 C10.3842794,11.1792353 13.6569265,9.01791176 16.65825,10.0132059 C17.3173676,10.2320294 17.9142794,10.6365882 18.5403088,10.956 C19.2850147,10.2086471 20.0861912,9.40526471 20.8926618,8.59614706 C20.8992794,8.60497059 20.8798676,8.57452941 20.8542794,8.55114706 C20.7933971,8.49511765 20.7303088,8.44129412 20.6667794,8.38747059 C18.9691324,6.95761765 17.0054559,6.30247059 14.7942794,6.38761765 C12.7975147,6.46482353 11.0111912,7.13276471 9.50898529,8.44747059 C7.09001471,10.566 6.05722059,13.2523235 6.55663235,16.4336471 C7.06575,19.6762941 8.93501471,21.9139412 11.9469265,23.1832059 C13.4204559,23.8039412 14.97075,23.9085 16.54575,23.6901176 C18.1436912,23.4682059 19.5938382,22.8849706 20.7858971,21.7842353 C23.2339853,19.5232059 23.7669265,16.6590882 23.3451618,13.4795294 L15.1688382,13.4795294 L15.1688382,16.8514412 L19.8395735,16.8514412 Z M14.9588382,0.176602131 C23.2172206,0.141882353 29.9570735,6.95320588 29.909241,15.1767353 C29.8626618,23.2211471 23.24325,30.096 14.7744265,29.9989412 C6.56854412,29.9054118 -0.0358676471,23.1845294 0.000160910413,14.9914412 C0.0360441176,6.83805882 6.73707353,0.176602131 14.9588382,0.176602131 L14.9588382,0.176602131 Z" id="Fill-1" fill="#5269A9" mask="url(#mask-2)"></path>
            </g>
        </g>
    </g>
</svg>